Coordinates
version=1
nRows=14
nColumns=46
inDegrees=yes

Units are S.I. units (second, meters, Newtons, ...)
Angles are in degrees.

endheader
time	pelvis_tilt	pelvis_list	pelvis_rotation	pelvis_tx	pelvis_ty	pelvis_tz	bb_angle	bb_tx	bb_ty	bb_tz	hip_flexion_r	hip_adduction_r	hip_rotation_r	knee_angle_r	knee_angle_r_beta	ankle_angle_r	subtalar_angle_r	mtp_angle_r	crank_angle_r	hip_flexion_l	hip_adduction_l	hip_rotation_l	knee_angle_l	knee_angle_l_beta	ankle_angle_l	subtalar_angle_l	mtp_angle_l	crank_angle_l	lumbar_extension	lumbar_bending	lumbar_rotation	arm_flex_r	arm_add_r	arm_rot_r	elbow_flex_r	pro_sup_r	wrist_flex_r	wrist_dev_r	arm_flex_l	arm_add_l	arm_rot_l	elbow_flex_l	pro_sup_l	wrist_flex_l	wrist_dev_l
      2.50000000	    -21.31711467	      6.73097646	      0.14708876	      0.07321901	      1.02259836	     -0.20301277	      0.00000000	      0.50000000	      0.00000000	      0.25000000	     44.57847144	    -10.27008474	     -5.43234637	     22.75351457	      0.39712375	    -30.63324154	     -0.50091891	      0.00000000	      0.00000000	     98.21630287	     -5.87285449	      2.60884534	    114.86709019	      2.00480893	     -5.39484807	     -5.37513237	      0.00000000	      0.00000000	    -48.92521359	     -8.76111791	     -3.11526795	     89.37563093	    -10.74580925	     40.19020391	     36.43247829	     32.69594119	      0.00000000	      0.00000000	     89.61932031	     -7.66720523	     37.17230516	     42.28524892	     31.55932254	      0.00000000	      0.00000000
      2.50500000	    -21.14920272	      6.78476675	      0.31166504	      0.07273310	      1.02296409	     -0.20306813	      0.00000000	      0.50000000	      0.00000000	      0.25000000	     44.44581599	    -10.47368358	     -5.33639125	     23.63206356	      0.41245732	    -30.52923470	     -1.01601466	      0.00000000	      0.00000000	     98.27992700	     -5.62019050	      2.52449666	    114.53125985	      1.99894758	     -4.23747793	     -5.38672287	      0.00000000	      0.00000000	    -49.26635758	     -8.89059410	     -3.35642528	     89.37444052	    -10.76159156	     39.52620013	     36.53180273	     32.35988049	      0.00000000	      0.00000000	     89.62376759	     -7.65925240	     36.86695365	     43.01511065	     31.42450356	      0.00000000	      0.00000000
      2.51000000	    -21.14299990	      6.85377160	      0.47075680	      0.07209177	      1.02295686	     -0.20326364	      0.00000000	      0.50000000	      0.00000000	      0.25000000	     44.62084604	    -10.67506383	     -5.07789340	     24.70288803	      0.43114673	    -30.47156227	     -1.59758302	      0.00000000	      0.00000000	     98.45729723	     -5.35102072	      2.41863285	    114.15191580	      1.99232678	     -3.04394316	     -5.46888616	      0.00000000	      0.00000000	    -49.43402463	     -9.03132555	     -3.56771645	     89.36288425	    -10.84468702	     38.88780485	     36.81846201	     31.71983710	      0.00000000	      0.00000000	     89.62660725	     -7.65882623	     36.71618120	     43.79367887	     30.97719203	      0.00000000	      0.00000000
      2.51500000	    -21.01595214	      6.82816593	      0.78953351	      0.07157855	      1.02332570	     -0.20373907	      0.00000000	      0.50000000	      0.00000000	      0.25000000	     44.56593722	    -10.90313119	     -4.96129544	     25.69497995	      0.44846200	    -30.50287055	     -2.32400041	      0.00000000	      0.00000000	     98.43634513	     -4.91637583	      2.30188460	    113.67661950	      1.98403129	     -1.90537686	     -5.98153964	      0.00000000	      0.00000000	    -49.87920387	     -8.93924249	     -3.82182737	     89.31306284	    -11.08877523	     37.52426034	     37.85912061	     32.19389666	      0.00000000	      0.00000000	     89.62257317	     -7.64622192	     35.83038298	     44.95544313	     31.50879204	      0.00000000	      0.00000000
      2.52000000	    -21.16356032	      6.86546665	      1.07367385	      0.07081008	      1.02268654	     -0.20426121	      0.00000000	      0.50000000	      0.00000000	      0.25000000	     45.15733093	    -11.19620411	     -4.64537774	     27.37620264	      0.47780487	    -29.70854608	     -2.63842198	      0.00000000	      0.00000000	     98.68118032	     -4.52971038	      2.21660031	    113.23436082	      1.97631242	     -0.24374930	     -5.74131910	      0.00000000	      0.00000000	    -49.78035365	     -8.94950656	     -4.18681194	     89.36307130	    -11.00034464	     37.92487340	     36.99521501	     33.07513739	      0.00000000	      0.00000000	     89.62353986	     -7.94911661	     36.23436760	     45.30834628	     32.37102276	      0.00000000	      0.00000000
      2.52500000	    -21.18787238	      6.80712606	      1.46743828	      0.06998576	      1.02248141	     -0.20484734	      0.00000000	      0.50000000	      0.00000000	      0.25000000	     45.51272006	    -11.44356394	     -4.38350765	     28.87335781	      0.50393516	    -29.31903338	     -3.15070827	      0.00000000	      0.00000000	     98.71330676	     -4.05066446	      2.08764823	    112.63754739	      1.96589606	      1.18835317	     -5.94294916	      0.00000000	      0.00000000	    -49.95623864	     -8.75436891	     -4.51661685	     89.36423020	    -11.02593451	     37.40476540	     37.47891781	     32.20545350	      0.00000000	      0.00000000	     89.61924507	     -8.20770933	     36.07603500	     46.43882396	     31.79557374	      0.00000000	      0.00000000
      2.53000000	    -21.26421466	      6.74892354	      1.87307840	      0.06901562	      1.02209575	     -0.20552600	      0.00000000	      0.50000000	      0.00000000	      0.25000000	     46.02807212	    -11.68622575	     -4.13264118	     30.56379956	      0.53343893	    -28.90802831	     -3.91716167	      0.00000000	      0.00000000	     98.74294565	     -3.54826098	      2.00061956	    111.96785462	      1.95420772	      2.67082407	     -5.99089920	      0.00000000	      0.00000000	    -50.08571474	     -8.58053583	     -4.81452154	     89.35908130	    -11.15177296	     36.73625307	     37.65145056	     33.44559559	      0.00000000	      0.00000000	     89.62019421	     -8.31062321	     35.78156378	     47.12741875	     32.95258218	      0.00000000	      0.00000000
      2.53500000	    -21.35154297	      6.72107462	      2.32929151	      0.06790485	      1.02165323	     -0.20635140	      0.00000000	      0.50000000	      0.00000000	      0.25000000	     46.58259627	    -11.99213802	     -3.78471016	     32.28039327	      0.56339915	    -28.47011695	     -4.51629188	      0.00000000	      0.00000000	     98.70222048	     -3.00276052	      1.85397239	    111.18657479	      1.94057181	      4.18869601	     -6.03720931	      0.00000000	      0.00000000	    -50.21696325	     -8.34695749	     -5.16125245	     89.35635943	    -11.25435751	     36.04665942	     37.99513253	     34.11884440	      0.00000000	      0.00000000	     89.61746353	     -8.45945488	     35.39691095	     47.95421242	     33.56783969	      0.00000000	      0.00000000
      2.54000000	    -21.39040210	      6.59100942	      2.81035523	      0.06674236	      1.02130208	     -0.20713298	      0.00000000	      0.50000000	      0.00000000	      0.25000000	     47.11694330	    -12.22177394	     -3.55186994	     34.07192794	      0.59466733	    -28.11083807	     -5.17008767	      0.00000000	      0.00000000	     98.52018157	     -2.45760638	      1.75873280	    110.29920487	      1.92508429	      5.85853253	     -6.12461547	      0.00000000	      0.00000000	    -50.39499862	     -8.01328638	     -5.42659354	     89.35866981	    -11.39839270	     35.25614439	     38.37521803	     34.88108450	      0.00000000	      0.00000000	     89.61682659	     -8.57836848	     34.92841362	     48.77820267	     34.32313261	      0.00000000	      0.00000000
      2.54500000	    -21.45804671	      6.53167717	      3.32439622	      0.06556893	      1.02093173	     -0.20795612	      0.00000000	      0.50000000	      0.00000000	      0.25000000	     47.71681534	    -12.54322046	     -3.23756062	     35.88798975	      0.62636358	    -27.63586832	     -5.51593472	      0.00000000	      0.00000000	     98.27074780	     -1.91654172	      1.54435861	    109.28259271	      1.90734106	      7.46443898	     -6.27531124	      0.00000000	      0.00000000	    -50.55098598	     -7.74316206	     -5.82092809	     89.35490587	    -11.47158819	     34.67940321	     38.65240600	     35.41886270	      0.00000000	      0.00000000	     89.61752098	     -8.71409172	     34.58872038	     49.70467801	     34.81692315	      0.00000000	      0.00000000
      2.55000000	    -21.52375908	      6.45373138	      3.83127914	      0.06428471	      1.02057597	     -0.20873839	      0.00000000	      0.50000000	      0.00000000	      0.25000000	     48.35062387	    -12.84361978	     -2.92927583	     37.69043395	      0.65782217	    -27.41471574	     -5.82014621	      0.00000000	      0.00000000	     97.91812384	     -1.39825444	      1.29122369	    108.12895036	      1.88720620	      9.08588368	     -6.61165215	      0.00000000	      0.00000000	    -50.72296838	     -7.44943598	     -6.12637415	     89.34692180	    -11.61874455	     33.96566929	     39.21103120	     35.23220574	      0.00000000	      0.00000000	     89.61888428	     -8.74336575	     34.15724114	     50.60924140	     34.84117083	      0.00000000	      0.00000000
      2.55500000	    -21.62002626	      6.35908405	      4.30779295	      0.06306815	      1.02010752	     -0.20940828	      0.00000000	      0.50000000	      0.00000000	      0.25000000	     49.08629496	    -13.08973073	     -2.66466392	     39.58126948	      0.69082347	    -27.41646056	     -6.46067447	      0.00000000	      0.00000000	     97.54815535	     -0.96792209	      1.07721989	    106.89177724	      1.86561346	     10.57525837	     -6.85428696	      0.00000000	      0.00000000	    -50.84492654	     -7.17354564	     -6.41453791	     89.33554253	    -11.77362812	     33.29352834	     39.62266490	     35.94639998	      0.00000000	      0.00000000	     89.61947135	     -8.72034477	     33.65141999	     51.36734961	     35.47101404	      0.00000000	      0.00000000
      2.56000000	    -21.67941655	      6.26059029	      4.79703589	      0.06184310	      1.01973128	     -0.21004941	      0.00000000	      0.50000000	      0.00000000	      0.25000000	     49.79015233	    -13.32663874	     -2.40220934	     41.46778963	      0.72374946	    -27.39111246	     -7.09855891	      0.00000000	      0.00000000	     97.04688618	     -0.54425907	      0.85562066	    105.50627051	      1.84143180	     12.11063343	     -6.92690513	      0.00000000	      0.00000000	    -51.01145477	     -6.88329113	     -6.68349640	     89.31451995	    -11.87029042	     32.27452054	     39.94454979	     36.99447421	      0.00000000	      0.00000000	     89.62094965	     -8.65458384	     33.11214239	     51.95085819	     36.57139073	      0.00000000	      0.00000000
      2.56500000	    -21.69091363	      6.00966477	      5.17344691	      0.06066821	      1.01919398	     -0.21053573	      0.00000000	      0.50000000	      0.00000000	      0.25000000	     50.45843842	    -13.36656026	     -2.16546661	     43.29724108	      0.75567941	    -27.56732737	     -7.43571353	      0.00000000	      0.00000000	     96.51215550	     -0.28339366	      0.76365417	    104.10530792	      1.81698039	     13.42256040	     -7.25147668	      0.00000000	      0.00000000	    -51.06450957	     -6.49164431	     -6.70883953	     89.35451705	    -12.04085794	     32.23003880	     40.02514563	     36.99647810	      0.00000000	      0.00000000	     89.62741492	     -8.61151974	     33.00031703	     52.27287276	     36.57315327	      0.00000000	      0.00000000
